# xmcd
#
# Track frame offsets:
# 150
# 15585
# 30701
# 45265
# 58066
# 77313
# 92099
# 106167
# 117968
# 130519
# 144288
# 156853
# 170088
# 190428
# 203812
# 217186
# 230108
# 244075
# 258309
# 273165
# 285376
# 296889
# 308364
# 320998
#
# Disc length: 4459 seconds
#
#
# Revision: 0
# Processed by: cddbd v1.5.2PL0 Copyright (c) Steve Scherf et al.
# Submitted via: FreeRIP 2.945 
#
DISCID=55116918
DTITLE=Cooper-JF1826 - Last-Mohicans01
DYEAR=1826
DGENRE=Native American
TTITLE0=LM 0101
TTITLE1=LM 0102
TTITLE2=LM 0103
TTITLE3=LM 0104
TTITLE4=LM 0105
TTITLE5=LM 0106
TTITLE6=LM 0107
TTITLE7=LM 0108
TTITLE8=LM 0109
TTITLE9=LM 0110
TTITLE10=LM 0111
TTITLE11=LM 0112
TTITLE12=LM 0113
TTITLE13=LM 0114
TTITLE14=LM 0115
TTITLE15=LM 0116
TTITLE16=LM 0117
TTITLE17=LM 0118
TTITLE18=LM 0119
TTITLE19=LM 0120
TTITLE20=LM 0121
TTITLE21=LM 0122
TTITLE22=LM 0123
TTITLE23=LM 0124
EXTD=The Last of the Mohicans Tantor Media\nby James Finimore Cooper 12 CDs\nread by William Costello native country
EXTT0=
EXTT1=
EXTT2=
EXTT3=
EXTT4=
EXTT5=
EXTT6=
EXTT7=
EXTT8=
EXTT9=
EXTT10=
EXTT11=
EXTT12=
EXTT13=
EXTT14=
EXTT15=
EXTT16=
EXTT17=
EXTT18=
EXTT19=
EXTT20=
EXTT21=
EXTT22=
EXTT23=
PLAYORDER=
